<svg width="89" height="39" viewBox="0 0 89 39" fill="none" xmlns="http://www.w3.org/2000/svg">
<path d="M69.7614 31V7.72727H79.375C81.1174 7.72727 82.6212 8.06818 83.8864 8.75C85.1591 9.42424 86.1402 10.3674 86.8295 11.5795C87.5189 12.7841 87.8636 14.1856 87.8636 15.7841C87.8636 17.3902 87.5114 18.7955 86.8068 20C86.1098 21.197 85.1136 22.125 83.8182 22.7841C82.5227 23.4432 80.9848 23.7727 79.2045 23.7727H73.2727V19.3409H78.1591C79.0076 19.3409 79.7159 19.1932 80.2841 18.8977C80.8598 18.6023 81.2955 18.1894 81.5909 17.6591C81.8864 17.1212 82.0341 16.4962 82.0341 15.7841C82.0341 15.0644 81.8864 14.4432 81.5909 13.9205C81.2955 13.3902 80.8598 12.9811 80.2841 12.6932C79.7083 12.4053 79 12.2614 78.1591 12.2614H75.3864V31H69.7614Z" fill="white"/>
<path d="M1.76136 31V7.72727H11.4659C13.2083 7.72727 14.6667 7.97348 15.8409 8.46591C17.0227 8.95833 17.9091 9.64773 18.5 10.5341C19.0985 11.4205 19.3977 12.447 19.3977 13.6136C19.3977 14.5 19.2121 15.2917 18.8409 15.9886C18.4697 16.678 17.9583 17.25 17.3068 17.7045C16.6553 18.1591 15.9015 18.4773 15.0455 18.6591V18.8864C15.9848 18.9318 16.8523 19.1856 17.6477 19.6477C18.4508 20.1098 19.0947 20.7538 19.5795 21.5795C20.0644 22.3977 20.3068 23.3674 20.3068 24.4886C20.3068 25.7386 19.9886 26.8561 19.3523 27.8409C18.7159 28.8182 17.7955 29.5909 16.5909 30.1591C15.3864 30.7197 13.9242 31 12.2045 31H1.76136ZM7.38636 26.4659H10.8636C12.0833 26.4659 12.9811 26.2348 13.5568 25.7727C14.1402 25.3106 14.4318 24.6667 14.4318 23.8409C14.4318 23.2424 14.2917 22.7273 14.0114 22.2955C13.7311 21.8561 13.3333 21.5189 12.8182 21.2841C12.303 21.0417 11.6856 20.9205 10.9659 20.9205H7.38636V26.4659ZM7.38636 17.2955H10.5C11.1136 17.2955 11.6591 17.1932 12.1364 16.9886C12.6136 16.7841 12.9848 16.4886 13.25 16.1023C13.5227 15.7159 13.6591 15.25 13.6591 14.7045C13.6591 13.9242 13.3826 13.3106 12.8295 12.8636C12.2765 12.4167 11.5303 12.1932 10.5909 12.1932H7.38636V17.2955Z" fill="white"/>
<path d="M32.3636 31H23.7614V7.72727H32.3523C34.7235 7.72727 36.7652 8.19318 38.4773 9.125C40.197 10.0492 41.5227 11.3826 42.4545 13.125C43.3864 14.8598 43.8523 16.9356 43.8523 19.3523C43.8523 21.7765 43.3864 23.8598 42.4545 25.6023C41.5303 27.3447 40.2083 28.6818 38.4886 29.6136C36.7689 30.5379 34.7273 31 32.3636 31ZM29.3864 26.2045H32.1477C33.4508 26.2045 34.553 25.9848 35.4545 25.5455C36.3636 25.0985 37.0492 24.375 37.5114 23.375C37.9811 22.3674 38.2159 21.0265 38.2159 19.3523C38.2159 17.678 37.9811 16.3447 37.5114 15.3523C37.0417 14.3523 36.3485 13.6326 35.4318 13.1932C34.5227 12.7462 33.4015 12.5227 32.0682 12.5227H29.3864V26.2045Z" fill="#6A67DF"/>
<path d="M60.3409 14.7045C60.2652 13.8712 59.928 13.2235 59.3295 12.7614C58.7386 12.2917 57.8939 12.0568 56.7955 12.0568C56.0682 12.0568 55.4621 12.1515 54.9773 12.3409C54.4924 12.5303 54.1288 12.7917 53.8864 13.125C53.6439 13.4508 53.5189 13.8258 53.5114 14.25C53.4962 14.5985 53.5644 14.9053 53.7159 15.1705C53.875 15.4356 54.1023 15.6705 54.3977 15.875C54.7008 16.072 55.0644 16.2462 55.4886 16.3977C55.9129 16.5492 56.3902 16.6818 56.9205 16.7955L58.9205 17.25C60.072 17.5 61.0871 17.8333 61.9659 18.25C62.8523 18.6667 63.5947 19.1629 64.1932 19.7386C64.7992 20.3144 65.2576 20.9773 65.5682 21.7273C65.8788 22.4773 66.0379 23.3182 66.0455 24.25C66.0379 25.7197 65.6667 26.9811 64.9318 28.0341C64.197 29.0871 63.1402 29.8939 61.7614 30.4545C60.3902 31.0152 58.7348 31.2955 56.7955 31.2955C54.8485 31.2955 53.1515 31.0038 51.7045 30.4205C50.2576 29.8371 49.1326 28.9508 48.3295 27.7614C47.5265 26.572 47.1136 25.0682 47.0909 23.25H52.4773C52.5227 24 52.7235 24.625 53.0795 25.125C53.4356 25.625 53.9242 26.0038 54.5455 26.2614C55.1742 26.5189 55.9015 26.6477 56.7273 26.6477C57.4848 26.6477 58.1288 26.5455 58.6591 26.3409C59.197 26.1364 59.6098 25.8523 59.8977 25.4886C60.1856 25.125 60.3333 24.7083 60.3409 24.2386C60.3333 23.7992 60.197 23.4242 59.9318 23.1136C59.6667 22.7955 59.2576 22.5227 58.7045 22.2955C58.1591 22.0606 57.4621 21.8447 56.6136 21.6477L54.1818 21.0795C52.1667 20.6174 50.5795 19.8712 49.4205 18.8409C48.2614 17.803 47.6856 16.4015 47.6932 14.6364C47.6856 13.197 48.072 11.9356 48.8523 10.8523C49.6326 9.76894 50.7121 8.92424 52.0909 8.31818C53.4697 7.71212 55.0417 7.40909 56.8068 7.40909C58.6098 7.40909 60.1742 7.71591 61.5 8.32954C62.8333 8.93561 63.8674 9.78788 64.6023 10.8864C65.3371 11.9848 65.7121 13.2576 65.7273 14.7045H60.3409Z" fill="white"/>
</svg>
