<svg width="643" height="643" viewBox="0 0 643 643" fill="none" xmlns="http://www.w3.org/2000/svg">
<circle cx="322" cy="411" r="80" fill="#847E7E"/>
<circle cx="322" cy="411" r="148" stroke="#6A67DF" stroke-width="4"/>
<line x1="320.5" x2="320.5" y2="643" stroke="#6A67DF" stroke-width="7"/>
<line x1="643" y1="413.5" y2="413.5" stroke="#6A67DF" stroke-width="7"/>
<path d="M112.045 457V363.909H150.5C157.47 363.909 163.485 365.273 168.545 368C173.636 370.697 177.561 374.47 180.318 379.318C183.076 384.136 184.455 389.742 184.455 396.136C184.455 402.561 183.045 408.182 180.227 413C177.439 417.788 173.455 421.5 168.273 424.136C163.091 426.773 156.939 428.091 149.818 428.091H126.091V410.364H145.636C149.03 410.364 151.864 409.773 154.136 408.591C156.439 407.409 158.182 405.758 159.364 403.636C160.545 401.485 161.136 398.985 161.136 396.136C161.136 393.258 160.545 390.773 159.364 388.682C158.182 386.561 156.439 384.924 154.136 383.773C151.833 382.621 149 382.045 145.636 382.045H134.545V457H112.045ZM245.864 391.818C245.561 388.485 244.212 385.894 241.818 384.045C239.455 382.167 236.076 381.227 231.682 381.227C228.773 381.227 226.348 381.606 224.409 382.364C222.47 383.121 221.015 384.167 220.045 385.5C219.076 386.803 218.576 388.303 218.545 390C218.485 391.394 218.758 392.621 219.364 393.682C220 394.742 220.909 395.682 222.091 396.5C223.303 397.288 224.758 397.985 226.455 398.591C228.152 399.197 230.061 399.727 232.182 400.182L240.182 402C244.788 403 248.848 404.333 252.364 406C255.909 407.667 258.879 409.652 261.273 411.955C263.697 414.258 265.53 416.909 266.773 419.909C268.015 422.909 268.652 426.273 268.682 430C268.652 435.879 267.167 440.924 264.227 445.136C261.288 449.348 257.061 452.576 251.545 454.818C246.061 457.061 239.439 458.182 231.682 458.182C223.894 458.182 217.106 457.015 211.318 454.682C205.53 452.348 201.03 448.803 197.818 444.045C194.606 439.288 192.955 433.273 192.864 426H214.409C214.591 429 215.394 431.5 216.818 433.5C218.242 435.5 220.197 437.015 222.682 438.045C225.197 439.076 228.106 439.591 231.409 439.591C234.439 439.591 237.015 439.182 239.136 438.364C241.288 437.545 242.939 436.409 244.091 434.955C245.242 433.5 245.833 431.833 245.864 429.955C245.833 428.197 245.288 426.697 244.227 425.455C243.167 424.182 241.53 423.091 239.318 422.182C237.136 421.242 234.348 420.379 230.955 419.591L221.227 417.318C213.167 415.47 206.818 412.485 202.182 408.364C197.545 404.212 195.242 398.606 195.273 391.545C195.242 385.788 196.788 380.742 199.909 376.409C203.03 372.076 207.348 368.697 212.864 366.273C218.379 363.848 224.667 362.636 231.727 362.636C238.939 362.636 245.197 363.864 250.5 366.318C255.833 368.742 259.97 372.152 262.909 376.545C265.848 380.939 267.348 386.03 267.409 391.818H245.864ZM275.409 363.909H300.545L320.227 402.864H321.045L340.727 363.909H365.864L331.818 425.909V457H309.455V425.909L275.409 363.909ZM453.67 397.636H430.943C430.64 395.303 430.019 393.197 429.08 391.318C428.14 389.439 426.898 387.833 425.352 386.5C423.807 385.167 421.973 384.152 419.852 383.455C417.761 382.727 415.443 382.364 412.898 382.364C408.383 382.364 404.489 383.47 401.216 385.682C397.973 387.894 395.473 391.091 393.716 395.273C391.989 399.455 391.125 404.515 391.125 410.455C391.125 416.636 392.004 421.818 393.761 426C395.549 430.152 398.049 433.288 401.261 435.409C404.504 437.5 408.337 438.545 412.761 438.545C415.246 438.545 417.504 438.227 419.534 437.591C421.595 436.955 423.398 436.03 424.943 434.818C426.519 433.576 427.807 432.076 428.807 430.318C429.837 428.53 430.549 426.515 430.943 424.273L453.67 424.409C453.277 428.53 452.08 432.591 450.08 436.591C448.11 440.591 445.398 444.242 441.943 447.545C438.489 450.818 434.277 453.424 429.307 455.364C424.367 457.303 418.701 458.273 412.307 458.273C403.883 458.273 396.337 456.424 389.67 452.727C383.034 449 377.792 443.576 373.943 436.455C370.095 429.333 368.17 420.667 368.17 410.455C368.17 400.212 370.125 391.53 374.034 384.409C377.943 377.288 383.231 371.879 389.898 368.182C396.564 364.485 404.034 362.636 412.307 362.636C417.943 362.636 423.155 363.424 427.943 365C432.731 366.545 436.943 368.818 440.58 371.818C444.216 374.788 447.17 378.439 449.443 382.773C451.716 387.106 453.125 392.061 453.67 397.636ZM466.545 457V363.909H489.045V401.273H525.727V363.909H548.182V457H525.727V419.591H489.045V457H466.545Z" fill="white"/>
<path d="M286.045 150V56.9091H324.864C331.833 56.9091 337.667 57.8939 342.364 59.8636C347.091 61.8333 350.636 64.5909 353 68.1364C355.394 71.6818 356.591 75.7879 356.591 80.4545C356.591 84 355.848 87.1667 354.364 89.9545C352.879 92.7121 350.833 95 348.227 96.8182C345.621 98.6364 342.606 99.9091 339.182 100.636V101.545C342.939 101.727 346.409 102.742 349.591 104.591C352.803 106.439 355.379 109.015 357.318 112.318C359.258 115.591 360.227 119.47 360.227 123.955C360.227 128.955 358.955 133.424 356.409 137.364C353.864 141.273 350.182 144.364 345.364 146.636C340.545 148.879 334.697 150 327.818 150H286.045ZM308.545 131.864H322.455C327.333 131.864 330.924 130.939 333.227 129.091C335.561 127.242 336.727 124.667 336.727 121.364C336.727 118.97 336.167 116.909 335.045 115.182C333.924 113.424 332.333 112.076 330.273 111.136C328.212 110.167 325.742 109.682 322.864 109.682H308.545V131.864ZM308.545 95.1818H321C323.455 95.1818 325.636 94.7727 327.545 93.9545C329.455 93.1364 330.939 91.9545 332 90.4091C333.091 88.8636 333.636 87 333.636 84.8182C333.636 81.697 332.53 79.2424 330.318 77.4545C328.106 75.6667 325.121 74.7727 321.364 74.7727H308.545V95.1818Z" fill="white"/>
<path d="M320.455 252H286.045V158.909H320.409C329.894 158.909 338.061 160.773 344.909 164.5C351.788 168.197 357.091 173.53 360.818 180.5C364.545 187.439 366.409 195.742 366.409 205.409C366.409 215.106 364.545 223.439 360.818 230.409C357.121 237.379 351.833 242.727 344.955 246.455C338.076 250.152 329.909 252 320.455 252ZM308.545 232.818H319.591C324.803 232.818 329.212 231.939 332.818 230.182C336.455 228.394 339.197 225.5 341.045 221.5C342.924 217.47 343.864 212.106 343.864 205.409C343.864 198.712 342.924 193.379 341.045 189.409C339.167 185.409 336.394 182.53 332.727 180.773C329.091 178.985 324.606 178.091 319.273 178.091H308.545V232.818Z" fill="white"/>
<path d="M336.364 287.818C336.061 284.485 334.712 281.894 332.318 280.045C329.955 278.167 326.576 277.227 322.182 277.227C319.273 277.227 316.848 277.606 314.909 278.364C312.97 279.121 311.515 280.167 310.545 281.5C309.576 282.803 309.076 284.303 309.045 286C308.985 287.394 309.258 288.621 309.864 289.682C310.5 290.742 311.409 291.682 312.591 292.5C313.803 293.288 315.258 293.985 316.955 294.591C318.652 295.197 320.561 295.727 322.682 296.182L330.682 298C335.288 299 339.348 300.333 342.864 302C346.409 303.667 349.379 305.652 351.773 307.955C354.197 310.258 356.03 312.909 357.273 315.909C358.515 318.909 359.152 322.273 359.182 326C359.152 331.879 357.667 336.924 354.727 341.136C351.788 345.348 347.561 348.576 342.045 350.818C336.561 353.061 329.939 354.182 322.182 354.182C314.394 354.182 307.606 353.015 301.818 350.682C296.03 348.348 291.53 344.803 288.318 340.045C285.106 335.288 283.455 329.273 283.364 322H304.909C305.091 325 305.894 327.5 307.318 329.5C308.742 331.5 310.697 333.015 313.182 334.045C315.697 335.076 318.606 335.591 321.909 335.591C324.939 335.591 327.515 335.182 329.636 334.364C331.788 333.545 333.439 332.409 334.591 330.955C335.742 329.5 336.333 327.833 336.364 325.955C336.333 324.197 335.788 322.697 334.727 321.455C333.667 320.182 332.03 319.091 329.818 318.182C327.636 317.242 324.848 316.379 321.455 315.591L311.727 313.318C303.667 311.47 297.318 308.485 292.682 304.364C288.045 300.212 285.742 294.606 285.773 287.545C285.742 281.788 287.288 276.742 290.409 272.409C293.53 268.076 297.848 264.697 303.364 262.273C308.879 259.848 315.167 258.636 322.227 258.636C329.439 258.636 335.697 259.864 341 262.318C346.333 264.742 350.47 268.152 353.409 272.545C356.348 276.939 357.848 282.03 357.909 287.818H336.364Z" fill="white"/>
</svg>
